<?xml version="1.0" encoding="UTF-8"?>
<svg xmlns="http://www.w3.org/2000/svg" version="1.1" width="200" height="200" viewBox="0 0 200 200"><rect x="0" y="0" width="200" height="200" fill="#ffffff"/><g transform="scale(6.061)"><g transform="translate(0,0)"><path fill-rule="evenodd" d="M10 0L10 2L11 2L11 0ZM12 0L12 1L13 1L13 2L12 2L12 4L13 4L13 3L14 3L14 4L15 4L15 5L17 5L17 4L18 4L18 5L20 5L20 4L18 4L18 3L19 3L19 2L18 2L18 3L17 3L17 4L16 4L16 2L17 2L17 1L16 1L16 0ZM18 0L18 1L21 1L21 0ZM23 0L23 1L24 1L24 0ZM8 1L8 2L9 2L9 1ZM14 2L14 3L15 3L15 2ZM21 2L21 3L22 3L22 4L21 4L21 6L20 6L20 8L19 8L19 10L18 10L18 12L17 12L17 13L18 13L18 15L19 15L19 16L20 16L20 17L19 17L19 18L15 18L15 17L12 17L12 15L13 15L13 14L9 14L9 15L8 15L8 17L7 17L7 16L6 16L6 15L7 15L7 14L8 14L8 13L11 13L11 12L9 12L9 11L8 11L8 12L6 12L6 11L7 11L7 10L6 10L6 11L4 11L4 9L5 9L5 8L0 8L0 11L1 11L1 9L3 9L3 10L2 10L2 11L4 11L4 12L3 12L3 14L2 14L2 18L1 18L1 17L0 17L0 19L2 19L2 20L0 20L0 25L1 25L1 21L2 21L2 23L3 23L3 24L2 24L2 25L3 25L3 24L4 24L4 25L5 25L5 24L4 24L4 22L3 22L3 21L5 21L5 20L6 20L6 21L8 21L8 22L9 22L9 23L7 23L7 22L5 22L5 23L7 23L7 24L6 24L6 25L8 25L8 27L9 27L9 28L8 28L8 33L9 33L9 30L10 30L10 29L11 29L11 25L12 25L12 26L13 26L13 27L12 27L12 29L13 29L13 28L14 28L14 29L15 29L15 28L14 28L14 27L16 27L16 28L17 28L17 29L16 29L16 30L15 30L15 31L14 31L14 32L15 32L15 33L16 33L16 32L17 32L17 33L18 33L18 32L17 32L17 30L20 30L20 32L22 32L22 33L25 33L25 32L24 32L24 31L25 31L25 30L26 30L26 31L28 31L28 32L29 32L29 33L30 33L30 32L31 32L31 33L32 33L32 32L31 32L31 31L30 31L30 30L33 30L33 28L32 28L32 26L30 26L30 28L29 28L29 25L30 25L30 24L33 24L33 23L32 23L32 22L33 22L33 21L32 21L32 18L33 18L33 17L32 17L32 16L31 16L31 15L32 15L32 14L33 14L33 13L32 13L32 10L33 10L33 9L32 9L32 8L31 8L31 9L32 9L32 10L30 10L30 8L29 8L29 10L30 10L30 11L27 11L27 12L28 12L28 13L26 13L26 12L25 12L25 11L24 11L24 13L26 13L26 14L24 14L24 17L23 17L23 16L22 16L22 15L23 15L23 14L22 14L22 13L23 13L23 12L22 12L22 11L23 11L23 10L24 10L24 9L26 9L26 10L28 10L28 8L27 8L27 9L26 9L26 8L23 8L23 6L22 6L22 4L23 4L23 5L24 5L24 7L25 7L25 5L24 5L24 4L25 4L25 3L24 3L24 4L23 4L23 3L22 3L22 2ZM8 3L8 4L9 4L9 5L8 5L8 7L9 7L9 8L6 8L6 9L8 9L8 10L9 10L9 9L10 9L10 11L11 11L11 9L12 9L12 10L13 10L13 11L12 11L12 13L13 13L13 12L14 12L14 13L16 13L16 9L12 9L12 7L13 7L13 5L11 5L11 6L10 6L10 4L11 4L11 3ZM9 6L9 7L10 7L10 6ZM11 6L11 7L12 7L12 6ZM14 6L14 8L15 8L15 6ZM16 6L16 8L17 8L17 9L18 9L18 8L17 8L17 6ZM18 6L18 7L19 7L19 6ZM21 6L21 7L22 7L22 6ZM10 8L10 9L11 9L11 8ZM20 8L20 10L19 10L19 12L18 12L18 13L22 13L22 12L21 12L21 11L22 11L22 10L23 10L23 9L22 9L22 8ZM20 10L20 11L21 11L21 10ZM14 11L14 12L15 12L15 11ZM0 12L0 13L2 13L2 12ZM5 12L5 13L6 13L6 14L5 14L5 15L4 15L4 14L3 14L3 15L4 15L4 16L5 16L5 15L6 15L6 14L7 14L7 13L6 13L6 12ZM29 12L29 13L28 13L28 15L27 15L27 16L26 16L26 15L25 15L25 16L26 16L26 17L25 17L25 18L26 18L26 17L28 17L28 19L27 19L27 20L26 20L26 21L25 21L25 20L24 20L24 21L25 21L25 22L23 22L23 21L22 21L22 20L23 20L23 19L24 19L24 18L21 18L21 19L22 19L22 20L20 20L20 18L19 18L19 20L18 20L18 19L17 19L17 20L16 20L16 19L14 19L14 20L13 20L13 21L12 21L12 19L13 19L13 18L12 18L12 17L10 17L10 18L9 18L9 19L8 19L8 18L7 18L7 17L6 17L6 18L4 18L4 19L6 19L6 20L7 20L7 19L8 19L8 21L11 21L11 22L13 22L13 23L12 23L12 25L15 25L15 26L16 26L16 27L17 27L17 28L18 28L18 29L20 29L20 28L21 28L21 26L19 26L19 27L18 27L18 25L20 25L20 24L21 24L21 25L22 25L22 28L23 28L23 29L21 29L21 30L22 30L22 32L23 32L23 31L24 31L24 30L25 30L25 29L24 29L24 28L23 28L23 26L24 26L24 24L25 24L25 22L26 22L26 21L28 21L28 22L27 22L27 23L26 23L26 24L27 24L27 23L28 23L28 24L30 24L30 21L31 21L31 22L32 22L32 21L31 21L31 20L30 20L30 19L31 19L31 18L32 18L32 17L31 17L31 16L30 16L30 15L29 15L29 14L30 14L30 13L31 13L31 12ZM15 14L15 15L14 15L14 16L15 16L15 15L16 15L16 14ZM19 14L19 15L20 15L20 16L21 16L21 17L22 17L22 16L21 16L21 14ZM0 15L0 16L1 16L1 15ZM9 15L9 16L10 16L10 15ZM16 16L16 17L18 17L18 16ZM28 16L28 17L30 17L30 16ZM2 18L2 19L3 19L3 18ZM6 18L6 19L7 19L7 18ZM10 18L10 19L9 19L9 20L10 20L10 19L11 19L11 18ZM14 20L14 21L15 21L15 20ZM17 20L17 21L16 21L16 22L15 22L15 23L14 23L14 24L15 24L15 25L16 25L16 26L17 26L17 25L18 25L18 24L20 24L20 23L18 23L18 24L17 24L17 23L16 23L16 22L17 22L17 21L18 21L18 20ZM28 20L28 21L29 21L29 20ZM19 21L19 22L21 22L21 21ZM22 22L22 23L21 23L21 24L23 24L23 22ZM28 22L28 23L29 23L29 22ZM10 23L10 24L11 24L11 23ZM8 24L8 25L9 25L9 24ZM25 25L25 28L28 28L28 25ZM26 26L26 27L27 27L27 26ZM19 27L19 28L20 28L20 27ZM30 28L30 29L32 29L32 28ZM26 29L26 30L28 30L28 31L29 31L29 32L30 32L30 31L29 31L29 30L28 30L28 29ZM11 30L11 32L10 32L10 33L12 33L12 31L13 31L13 30ZM26 32L26 33L27 33L27 32ZM0 0L0 7L7 7L7 0ZM1 1L1 6L6 6L6 1ZM2 2L2 5L5 5L5 2ZM26 0L26 7L33 7L33 0ZM27 1L27 6L32 6L32 1ZM28 2L28 5L31 5L31 2ZM0 26L0 33L7 33L7 26ZM1 27L1 32L6 32L6 27ZM2 28L2 31L5 31L5 28Z" fill="#000000"/></g></g></svg>
